<?xml version="1.0" encoding="utf-8"?>
<!-- Generator: Adobe Illustrator 23.0.0, SVG Export Plug-In . SVG Version: 6.00 Build 0)  -->
<svg version="1.1" id="图层_1" xmlns="http://www.w3.org/2000/svg" xmlns:xlink="http://www.w3.org/1999/xlink" x="0px" y="0px"
	 viewBox="0 0 70.93 70.93" style="enable-background:new 0 0 70.93 70.93;" xml:space="preserve">
<style type="text/css">
	.st0{fill:#E2751E;}
	.st1{fill:none;}
	.st2{fill:#040000;}
</style>
<g>
	<path class="st0" d="M64.43,63.84"/>
	<path class="st0" d="M37.84,5.55C26.99,3.13,15.25,6.61,9.46,16.57c-4.53,7.8-7.25,21.93,0.85,28.34
		c10.5,8.31,25.63,2.98,29.43-1.42c2.42-2.8,2.88-5.79,2.88-5.78c0,0,0,0,0,0c0,0,0.1-0.8,0.14-1.51c0.04-0.84-0.03-0.92-0.01-1.65
		c0.03-0.87,0.01-1.4,0.21-1.73c0.42-0.67,1.23-0.94,5-1.09c2.77-0.11,4.46-0.06,6.43,0.29c2.09,0.36,2.34,0.68,2.45,0.88
		c0.81,1.54-2.51,4.81-3.37,5.65c-0.46,0.46-1.67,1.44-4.07,3.4c-1.02,0.83-1.11,0.9-2.42,1.96c-2.89,2.34-2.98,2.45-4.97,4.05
		c-2.49,2.01-2.3,1.8-4.17,3.32c-1.66,1.36-2.05,1.72-3.21,2.6c-1.78,1.35-1.9,1.29-2.9,2.14c-1.47,1.24-2.45,2.08-3.06,3.52
		c-0.26,0.61-1.06,2.51-0.17,3.84c0.69,1.04,2.07,1.2,3.73,1.38c1.38,0.15,2.3,0.05,6.02-0.46c2.99-0.41,3.6-0.51,5.41-0.72
		c1.89-0.22,2.95-0.32,3.94-0.38c1.36-0.09,2.5-0.11,3.32-0.12c0.93,0.01,2.31,0.06,3.97,0.28c1.31,0.18,2.31,0.37,3.19,0.57
		c1.62,0.38,2.89,0.8,3.15,0.89c1.43,0.48,2.03,0.8,3.35,1.07c1.14,0.24,1.71,0.35,2.03,0.09c0.85-0.68,0.44-3.4-1.1-4.95
		c-0.49-0.49-1.09-0.86-5.89-1.72c-2.6-0.47-3.98-0.71-6.03-0.91c-2.48-0.23-4.37-0.24-4.94-0.24c-1.96,0-3.45,0.13-4.93,0.25
		c-4.91,0.41-6.75,0.95-6.95,0.43c-0.14-0.36,0.63-0.95,3.17-2.9c1.56-1.2,3.09-2.42,4.66-3.59c0.77-0.57,2.91-2.33,7.18-5.85
		c2.8-2.3,3.88-3.2,5.35-4.51c1.99-1.77,2.98-2.66,3.63-3.47c0.45-0.57,4.06-5.13,2.9-7.9c-0.82-1.94-3.61-2.82-11.49-2.81
		c-7.72,0.01-15.46,0.55-23.14,1.3c-3.19,0.31-3.24,4.75,0,5c2.48,0.19,7.77-1.39,8.76,1.77c1.26,4.02-5.76,7.33-8.39,7.96
		c-7.71,1.86-18.79-0.74-19.1-10.09C9.81,18.7,21.04,6.92,36.51,10.37C39.64,11.07,40.98,6.25,37.84,5.55z"/>
</g>
<line class="st1" x1="53.83" y1="36.75" x2="52.45" y2="39.9"/>
<path class="st2" d="M85.91,52.51"/>
<path class="st2" d="M49.34,36.31"/>
<path class="st2" d="M41.08,25.87"/>
<path class="st2" d="M82.85,41.2"/>
</svg>
